<svg xmlns="http://www.w3.org/2000/svg" width="668.832" height="496.266" viewBox="0 0 668.832 496.266"><defs><style>.a{fill:#f58719;}.b{fill:#f2f2f2;}.c{fill:#3f3d56;}.d{fill:#a0616a;}.e{fill:#2f2e41;}.f{fill:#d0cde1;}</style></defs><path class="a" d="M520.55,743.188H252.836s-5.427-79.591,26.681-80.5,28.49,35.273,68.737-14.471,89.087-47.031,95.418-17.637-12.21,52.91,21.707,45.674S548.135,688.017,520.55,743.188Z" transform="translate(-154.811 -252.697)"/><path class="b" d="M442.432,742.988l-.9-.036c2.107-52.4,13.082-86.071,21.917-105.087,9.593-20.649,18.838-29.008,18.93-29.09l.6.676c-.091.081-9.228,8.357-18.744,28.866C455.446,657.253,444.532,690.783,442.432,742.988Z" transform="translate(-215.069 -252.478)"/><path class="b" d="M584.679,778.331l-.868-.253c10.455-35.885,35.075-58.542,35.323-58.767l.608.669C619.5,720.2,595.06,742.7,584.679,778.331Z" transform="translate(-260.424 -287.714)"/><path class="b" d="M303.786,769l-.9-.125c3.547-25.582-2.86-45.43-8.86-57.576-6.5-13.151-13.909-20.333-13.983-20.4l.626-.653c.075.072,7.6,7.365,14.168,20.656C300.9,723.16,307.365,743.191,303.786,769Z" transform="translate(-163.595 -278.448)"/><rect class="c" width="1.362" height="126.029" transform="translate(520.322 17.712)"/><path class="a" d="M810.738,756.437C806.865,770.753,793.6,779.62,793.6,779.62s-6.986-14.345-3.113-28.662,17.138-23.183,17.138-23.183S814.611,742.12,810.738,756.437Z" transform="translate(-325.931 -290.411)"/><path class="a" d="M768.5,756.437c3.873,14.317,17.138,23.183,17.138,23.183s6.986-14.345,3.113-28.662-17.138-23.183-17.138-23.183S764.623,742.12,768.5,756.437Z" transform="translate(-318.921 -290.411)"/><path class="c" d="M764.969,760.084c10.627,10.345,11.925,26.248,11.925,26.248s-15.932-.87-26.559-11.215-11.925-26.248-11.925-26.248S754.342,749.739,764.969,760.084Z" transform="translate(-309.704 -297.135)"/><path class="c" d="M806.828,760.084C796.2,770.429,794.9,786.332,794.9,786.332s15.932-.87,26.559-11.215,11.925-26.248,11.925-26.248S817.455,749.739,806.828,760.084Z" transform="translate(-327.712 -297.135)"/><ellipse class="c" cx="284.417" cy="6.606" rx="284.417" ry="6.606" transform="translate(0 483.053)"/><path class="d" d="M334,550.942l-3.775,33.03s-13.212,32.086-15.1,55.679l-1.887,26.424h12.268s16.043-37.749,16.987-48.13l22.649-68.891Z" transform="translate(-174.175 -233.442)"/><path class="d" d="M404.651,550.942l-3.775,33.03s-13.212,32.086-15.1,55.679l-1.887,26.424h12.268s16.043-37.749,16.987-48.13l22.649-68.891Z" transform="translate(-196.696 -233.442)"/><path class="d" d="M429.6,437.292l10.381,26.424s-.944,22.649,11.325,20.762-1.887-24.537-1.887-24.537l-7.55-27.368S432.435,430.686,429.6,437.292Z" transform="translate(-211.268 -196.233)"/><circle class="d" cx="16.987" cy="16.987" r="16.987" transform="translate(183.89 122.623)"/><path class="d" d="M380.7,298.316s-5.662,18.874-9.437,18.874,25.48,11.325,25.48,11.325-7.55-7.55,0-21.705Z" transform="translate(-192.564 -153.516)"/><path class="e" d="M347.473,438.274,322.936,510s8.493,4.719,22.649,4.719,77.385-1.887,78.328-7.55S404.1,438.274,404.1,438.274l-3.775-23.593-46.242,12.268Z" transform="translate(-177.266 -190.609)"/><path class="e" d="M324.184,719.447H307.2l-2.831,12.268s-5.662,3.775-3.775,12.268.944,26.424.944,26.424l18.874,12.268s5.662-6.606,1.887-17.931Z" transform="translate(-170.021 -287.757)"/><path class="e" d="M394.834,719.447H377.847l-2.831,12.268s-5.662,3.775-3.775,12.268.944,26.424.944,26.424l18.874,12.268s5.662-6.606,1.887-17.931Z" transform="translate(-192.542 -287.757)"/><path class="f" d="M368.856,322.614s13.086,3.474,16.924,7.4l6.669,3.925,8.493,17.931s6.606,2.831,6.606,15.1S416.985,400,416.985,400s6.606,5.662,1.887,8.493a22.738,22.738,0,0,1-10.381,2.831s4.719-17.931-4.719-18.874-14.156-1.887-15.1,0-26.424,29.255-36.8,26.424-4.719-31.143-4.719-31.143l8.493-66.06s6.606-.944,10.381,0S368.856,322.614,368.856,322.614Z" transform="translate(-184.494 -160.827)"/><path class="d" d="M332.633,437.292l10.381,26.424s-.944,22.649,11.325,20.762-1.887-24.537-1.887-24.537l-7.55-27.368S335.464,430.686,332.633,437.292Z" transform="translate(-180.358 -196.233)"/><path class="f" d="M348.594,321.856l-1.887-.944s-5.662-5.662-12.268,1.887-13.212,47.186-13.212,47.186v12.268s-7.55,10.381-.944,16.043,7.55,6.606,7.55,6.606,6.606-9.437,14.156-4.719l.944-3.775a11.679,11.679,0,0,0,1.887-2.831c.944-1.887,2.831.944,1.887-1.887s0-3.775,0-4.719.944-5.662.944-5.662l-.944-29.255Z" transform="translate(-175.557 -160.069)"/><path class="e" d="M398.253,269.56s13.8-30.087-22.265-30.055c0,0-22.127-11.624-38.976,15.333l-17.388,28.343,4.443-.883.564,4.423L330.3,290.2l4.264-4.406-.705,6.745L382.7,313.28s-18.414-20.392-11.311-44.433l2.884,5.885Z" transform="translate(-176.21 -133.975)"/><ellipse class="d" cx="2.384" cy="4.769" rx="2.384" ry="4.769" transform="translate(189.922 139.654)"/><path class="c" d="M745.61,17.712V0H547.234V380.13H535.789V485.041h38.149V380.13H562.493V17.712Z" transform="translate(-170.789)"/><ellipse class="a" cx="53.818" cy="9.537" rx="53.818" ry="9.537" transform="translate(467.185 8.175)"/><rect class="a" width="219.358" height="119.898" transform="translate(411.324 141.016)"/><rect class="b" width="151.235" height="75.049" transform="translate(430.399 170.878)"/><path class="c" d="M922.466,405.047H739.895V313.762H922.466Zm-181.209-1.362H921.1V315.124H741.257Z" transform="translate(-310.177 -158.439)"/><rect class="c" width="98.056" height="1.362" transform="translate(456.988 193.415)"/><rect class="c" width="98.056" height="1.362" transform="translate(456.988 207.721)"/><rect class="c" width="98.056" height="1.362" transform="translate(456.988 222.027)"/><circle class="c" cx="31.337" cy="31.337" r="31.337" transform="translate(595.939 104.229)"/><path class="a" d="M1022.375,274.751l-15.682-15.682a2.725,2.725,0,1,1,3.854-3.854l11.567,11.567,36.912-42.093a2.725,2.725,0,0,1,4.1,3.593Z" transform="translate(-394.968 -129.751)"/></svg>