<svg xmlns="http://www.w3.org/2000/svg" width="38" height="38" viewBox="0 0 38 38"><defs><style>.a{fill:#979797;}.b,.d{fill:none;}.b{stroke:#979797;stroke-width:2px;}.c{stroke:none;}</style></defs><g transform="translate(-0.206 -0.206)"><g transform="translate(10.009 10.009)"><g transform="translate(0)"><path class="a" d="M17.961.945H15.125V0H3.781V.945H.945A.893.893,0,0,0,0,1.891V4.159A4.288,4.288,0,0,0,3.781,8.413v.095a5.686,5.686,0,0,0,4.443,5.577L7.563,16.07H5.388a.908.908,0,0,0-.851.662l-.756,2.174H15.125l-.756-2.174a.908.908,0,0,0-.851-.662H11.344l-.662-1.985a5.686,5.686,0,0,0,4.443-5.577V8.413a4.288,4.288,0,0,0,3.781-4.254V1.891A.893.893,0,0,0,17.961.945ZM3.781,6.523A2.525,2.525,0,0,1,1.891,4.159V2.836H3.781Zm7.563,2.93L9.453,8.413,7.563,9.453l.473-1.891L6.617,5.672H8.6l.851-1.891L10.3,5.672h1.985L10.871,7.563Zm5.672-5.294a2.439,2.439,0,0,1-1.891,2.363V2.836h1.891Z" transform="translate(0)"/></g></g><g class="b" transform="translate(0.206 0.206)"><rect class="c" width="38" height="38" rx="9"/><rect class="d" x="1" y="1" width="36" height="36" rx="8"/></g></g></svg>